<svg xmlns="http://www.w3.org/2000/svg" xml:space="preserve" viewBox="0 0 2000 236"><path fill="none" d="M1527 237H1.085V1.098h1999.888V237H1527M538.5 84h-57.735V10.386h-41.533v197.35h41.883v-88.412h76.12v88.29h41.534V10.265h-41.884V84H538.5m87.002 124h132.147v-36.29H648.235v-49.768h96.468V86.82h-96.345V44.697h104.399V10.27H607.294V208H625.5M384.5 81c-10.332 0-20.67-.205-30.993.094-4.528.132-5.636-1.521-5.59-5.785.196-17.995.1-35.994.074-53.991-.01-6.871-4.293-11.276-11.02-11.305-10.665-.047-21.33-.058-31.995.003-7.812.044-11.966 4.221-11.972 11.909-.013 17.497-.001 34.995-.006 52.492-.002 6.572-.01 6.58-6.609 6.581-17.164.005-34.328-.007-51.493.007-7.024.006-13.82 3.666-13.07 12.861.781 9.602.669 19.35.035 28.973-.642 9.757 4.548 14.284 14.391 14.2 16.997-.143 33.998.128 50.99-.146 4.776-.077 5.907 1.553 5.849 6.046-.226 17.328.339 34.676-.276 51.985-.3 8.417 5.911 13.459 13.02 13.178 10.15-.4 20.327-.089 30.492-.107 7.507-.013 11.66-4.154 11.668-11.66.017-17.83.152-35.663-.095-53.49-.064-4.64 1.323-6.009 5.952-5.944 17.66.246 35.327.121 52.991.088 7.233-.014 11.693-2.689 12.279-9.782.953-11.537 1.296-23.268.29-34.777-.816-9.322-4.688-11.426-14.415-11.43-6.499-.002-12.998 0-20.497 0M952 195.487V136c16.143 0 31.637-.366 47.106.107 14.33.438 26.94-3.612 38.352-12.05 7.78-5.753 13.782-12.8 17.619-21.811 5.254-12.339 6.94-24.886 5.06-38.261-2.078-14.777-7.926-27.606-18.595-37.703-11.954-11.312-26.828-16.254-43.272-16.273-27.5-.032-54.998-.009-82.498-.009h-5.508v198H952v-12.513m868.253-133.432c-5.766-2.88-11.94-2.913-18.228-3.154-18.137-.695-36.21 13.81-43.081 30.435-6.78 16.406-6.886 33.058-2.9 49.939 7.048 29.851 31.789 41.53 58.39 36.39 7.927-1.532 15.54-4.53 20.566-13.675 0 5.777-.016 9.754.004 13.73.032 6.716-.835 13.288-6.054 18.05-3.046 2.778-6.639 5.275-10.42 6.869-9.809 4.134-19.184 3.095-28.367-2.764-6.37-4.064-6.796-10.58-8.634-16.539h-28.6c.408 1.953.999 3.529 1.026 5.114.317 18.234 14.701 33.28 30.023 38.672 12.448 4.38 25.043 4.97 37.876 2.868 14.743-2.415 27.087-8.56 35.584-21.656 6.062-9.343 8.337-19.608 8.435-30.235.333-36.149.127-72.303.127-108.455V62.36h-31.194v10.192c-4.566-3.33-9.221-6.724-14.553-10.497M189.5 10H62.34v35.262h59.96V207.77h41.727V44.935h58.676V10H189.5m648 161h-33.736V10.386h-41.53v197.352h138.47V171H837.5m684.125-112c-16.121-.636-31.209 12.62-36.591 25.471-5.585 13.335-7.548 27.102-6.206 41.661 1.488 16.132 6.54 30.11 18.325 41.647 13.038 12.764 40.627 15.918 55.344 2.245 1.995-1.853 4.041-3.65 6.763-6.103v11.692h29.48V20c-8.712 0-17.174.173-25.622-.077-3.91-.116-5.253 1.058-5.197 5.087.21 14.994.096 29.992.074 44.988-.001 1.167-.23 2.335-.399 3.946-10.531-11.45-20.292-16.003-35.971-14.945M1228.65 178c.833.005 1.69-.121 2.494.033 15.459 2.965 29.072-1.263 41.782-10.835.39 1.866.454 3.678 1.175 5.172.667 1.384 2.007 3.427 3.106 3.463 8.769.283 17.55.158 26.133.158.331-.772.567-1.063.564-1.352-.291-27.407.183-54.855-1.234-82.205-.725-13.984-8.072-25.5-24.154-30.703-9.532-3.084-19.16-2.663-28.85-2.73-10.144-.069-19.666 1.817-28.532 7.278-9.856 6.07-17.364 20.267-15.647 32.481h28.2c1.625-9.214 7.032-15.153 14.529-15.704 3.86-.284 7.773-.27 11.635 0 6.435.448 11.927 5.495 12.148 10.8.254 6.098-3.689 9.971-11.274 11.147-6.286.974-12.651 1.634-18.823 3.098-8.344 1.979-16.95 3.678-24.69 7.168-9.78 4.409-13.639 13.307-15.516 23.903-3.463 19.54 6.132 35.499 26.954 38.828m461.07 1c4.427-.33 8.86-.586 13.278-1.002 14.57-1.37 26.085-8.305 34.393-20.112 3.165-4.5 4.904-10.001 7.603-15.7-11.661 0-21.957 0-32.253.003-4.212 10.467-15.477 13.51-24.909 11.52-12.859-2.712-18.549-12.892-19.531-26.736h78.613c-1.372-10.3-1.784-20.196-4.148-29.602-3.872-15.41-11.842-28.286-27.487-34.615-11.955-4.836-24.394-4.865-36.837-2.72-19.842 3.418-32.477 15.694-38.22 34.354-5.431 17.644-4.51 35.665 1.867 53.071 3.648 9.957 9.1 18.472 19.195 23.81 8.774 4.64 18.04 6.22 28.437 7.729M1989 107.593c-1.007-4.427-1.503-9.05-3.114-13.245-5.411-14.087-14.466-24.722-28.746-30.948-9.914-4.322-20.05-4.402-30.419-4.433-21.059-.063-42.959 13.922-49.852 35.774-3.79 12.018-4.754 23.98-2.917 36.376 2.241 15.122 8.77 27.902 21.215 36.79 14.88 10.626 31.92 13.293 49.655 9.942 19.33-3.653 33.108-14.578 40.31-33.248 4.515-11.703 6.09-23.692 3.868-37.008M54 199.449V10.315H12.295v197.366H54v-8.232M1339.34 62h-25.043v113.64H1345c0-22.172.155-43.988-.051-65.8-.153-16.218 9.126-26.176 26.146-24.875 7.943.607 13.605 4.44 14.757 10.988a73.353 73.353 0 0 1 1.099 12.278c.107 20.664.049 41.328.049 61.993v5.45h30.602c.175-.632.336-.94.336-1.25.028-26.83.33-53.664-.108-80.486-.138-8.462-2.565-16.647-8.676-23.383-10.945-12.065-25.026-12.586-39.595-11.22-3.261.306-6.756 1.476-9.499 3.245-5.64 3.638-10.844 7.95-16.06 11.86 0-2.64-.194-5.82.055-8.963.24-3.019-1.076-3.858-4.714-3.477m-220.265 113.57c12.522 3.276 25.143 4.583 38.045 2.466 10.807-1.773 20.81-4.945 28.138-13.77 5.21-6.275 7.904-13.339 7.985-21.591.078-7.958-.875-15.306-6.535-21.556-6.686-7.381-15.848-9.37-24.705-12.107-11.167-3.452-22.4-6.7-33.524-10.283-4.343-1.399-6-4.94-5.456-9.394.504-4.121 3.49-5.843 7.11-6.276 4.887-.585 9.938-1.53 14.72-.874 8.44 1.158 12.931 3.183 15.246 12.04.283 1.084 1.777 2.616 2.739 2.638 8.943.203 17.893.12 27.518.12-.517-3.495-.749-6.404-1.396-9.217-2.935-12.75-10.177-21.83-22.974-25.68-16.147-4.857-32.695-5.091-48.698-.528-22.27 6.35-27.707 22.831-23.044 40.968 3.012 11.712 12.82 17.85 23.897 21.382 12.227 3.9 24.614 7.291 36.873 11.093 4.402 1.365 8.206 3.763 7.946 9.21-.243 5.093-3.405 8.384-8.067 9.224-5.783 1.043-11.904 2.104-17.6 1.263-7.57-1.117-15.15-3.655-16.617-13.242-.141-.922-1.663-2.318-2.564-2.334-9.871-.168-19.747-.105-29.628-.105.671 20.606 15.883 32.576 30.59 36.553M1599 112.5v63.098h30.74V62.312H1599V112.5m0-86.872v23.109h30.688V20.182h-30.408c-.1 1.596-.19 3.036-.28 5.446z"/><path fill="#58A6FF" d="M538.999 84h17.886V10.263h41.884v197.352h-41.534v-88.291h-76.12v88.411h-41.883V10.386h41.533V84h58.234zM625.001 208h-17.707V10.27h145.463v34.427H648.358v42.122h96.345v35.123h-96.468v49.768h109.413V208H625.001z"/><path fill="#BF1E2D" d="M385 81c7 0 13.498-.002 19.997 0 9.727.004 13.6 2.108 14.415 11.43 1.006 11.509.663 23.24-.29 34.777-.586 7.093-5.046 9.768-12.279 9.782-17.664.033-35.33.158-52.991-.088-4.629-.065-6.016 1.304-5.952 5.944.247 17.827.112 35.66.095 53.49-.007 7.506-4.161 11.647-11.668 11.66-10.165.018-20.342-.294-30.491.107-7.11.28-13.32-4.76-13.021-13.178.615-17.309.05-34.657.276-51.985.058-4.493-1.073-6.123-5.848-6.046-16.993.274-33.994.003-50.99.147-9.844.083-15.034-4.444-14.392-14.201.634-9.624.746-19.371-.036-28.973-.75-9.195 6.047-12.855 13.071-12.86 17.165-.015 34.329-.003 51.493-.008 6.599-.001 6.607-.01 6.609-6.58.005-17.498-.007-34.996.006-52.493.006-7.688 4.16-11.865 11.972-11.91 10.664-.06 21.33-.049 31.995-.002 6.727.03 11.01 4.434 11.02 11.305.026 17.997.122 35.996-.074 53.991-.046 4.264 1.062 5.917 5.59 5.785C363.83 80.794 374.168 81 385 81z"/><path fill="#58A6FF" d="M952 195.984V208H910.264V10h5.508c27.5 0 54.999-.023 82.498.009 16.444.02 31.318 4.96 43.272 16.273 10.67 10.097 16.517 22.926 18.595 37.703 1.88 13.375.194 25.922-5.06 38.26-3.837 9.012-9.84 16.06-17.62 21.812-11.411 8.438-24.02 12.488-38.351 12.05-15.469-.473-30.963-.107-47.106-.107v59.984m0-100.57v6.584c15.216 0 29.86.394 44.466-.176 6.702-.262 13.458-1.986 18.552-7.298 7.418-7.736 10.077-16.724 8.023-27.279-1.779-9.138-6.207-16.424-15.294-19.112-6.613-1.955-13.722-2.723-20.651-3.005C975.519 44.658 963.909 45 952 45v50.414z"/><path fill="#8B949E" d="M1820.591 62.244c4.994 3.584 9.649 6.978 14.215 10.308V62.36H1866v5.284c0 36.152.206 72.306-.127 108.455-.098 10.627-2.373 20.892-8.435 30.235-8.497 13.095-20.841 19.24-35.584 21.656-12.833 2.101-25.428 1.513-37.876-2.868-15.322-5.391-29.706-20.438-30.023-38.672-.027-1.585-.618-3.16-1.025-5.114h28.599c1.838 5.96 2.265 12.475 8.634 16.539 9.183 5.859 18.558 6.898 28.368 2.764 3.78-1.594 7.373-4.09 10.419-6.87 5.219-4.76 6.086-11.333 6.054-18.049-.02-3.976-.004-7.953-.004-13.73-5.025 9.145-12.64 12.143-20.566 13.675-26.601 5.14-51.342-6.539-58.39-36.39-3.986-16.88-3.88-33.533 2.9-49.939 6.87-16.626 24.944-31.13 43.08-30.435 6.289.24 12.463.274 18.567 3.343m13.544 70.212c.287-7.279 1.641-14.709.633-21.803-1.912-13.448-6.02-24.47-23.425-24.881-7.71-.182-16.61 1.243-21.538 11.787-5.973 12.781-6.426 26.342-1.24 38.75 5.805 13.887 16.378 18.954 30.381 14.482 8.117-2.592 12.608-9.457 15.19-18.335z"/><path fill="#58A6FF" d="M190 10h32.703v34.935h-58.676V207.77H122.3V45.262H62.34V10H190zM838 171h62.705v36.738H762.234V10.386h41.53V171H838z"/><path fill="#8B949E" d="M1522.106 59c15.198-1.058 24.959 3.494 35.49 14.945.17-1.611.398-2.779.4-3.946.021-14.996.135-29.994-.075-44.988-.056-4.03 1.287-5.203 5.197-5.087 8.448.25 16.91.077 25.622.077v155.612h-29.48V163.92c-2.722 2.453-4.768 4.25-6.763 6.103-14.717 13.673-42.306 10.52-55.344-2.245-11.786-11.537-16.837-25.515-18.325-41.647-1.342-14.559.621-28.326 6.206-41.66 5.382-12.851 20.47-26.108 37.072-25.472m22.178 27.987c-13.124-4.637-26.909.297-31.016 11.567-4.816 13.216-4.986 26.649-.025 39.914 3.11 8.314 14.816 16.457 22.099 15.487 10.882-1.45 17.764-7.604 21.817-17.834 3.564-8.999 2.777-18.179 1.516-27.08-1.254-8.852-4.366-17.585-14.391-22.054zM1228.208 178c-20.38-3.33-29.975-19.289-26.512-38.828 1.877-10.596 5.737-19.494 15.515-23.903 7.74-3.49 16.347-5.19 24.69-7.168 6.173-1.464 12.538-2.124 18.824-3.098 7.585-1.176 11.528-5.049 11.274-11.146-.221-5.306-5.713-10.353-12.148-10.801a81.667 81.667 0 0 0-11.635 0c-7.497.551-12.904 6.49-14.529 15.704h-28.2c-1.717-12.214 5.791-26.41 15.647-32.481 8.866-5.461 18.388-7.347 28.532-7.277 9.69.066 19.318-.355 28.85 2.73 16.082 5.202 23.429 16.718 24.154 30.702 1.417 27.35.943 54.798 1.234 82.205.003.29-.233.58-.564 1.352-8.582 0-17.364.125-26.133-.158-1.1-.036-2.439-2.08-3.106-3.463-.721-1.494-.785-3.306-1.175-5.172-12.71 9.572-26.323 13.8-41.782 10.835-.804-.154-1.661-.028-2.936-.034m31.204-24.855c11.73-7.375 15.087-18.317 13.401-30.673-6.597 1.494-13.383 2.825-20.051 4.598-6.21 1.651-13.026 2.25-17.345 8.015-3.208 4.282-4.542 8.904-2.455 14.18 1.874 4.742 5.566 6.932 10.306 6.64 5.213-.321 10.377-1.466 16.144-2.76zM1689.252 178.999c-9.928-1.509-19.194-3.087-27.968-7.727-10.095-5.34-15.547-13.854-19.195-23.811-6.377-17.406-7.298-35.427-1.868-53.071 5.744-18.66 18.38-30.936 38.22-34.355 12.444-2.144 24.883-2.115 36.838 2.721 15.645 6.33 23.615 19.205 27.487 34.615 2.364 9.406 2.776 19.302 4.148 29.602H1668.3c.982 13.844 6.672 24.024 19.531 26.736 9.432 1.99 20.697-1.053 24.91-11.522l32.252-.001c-2.7 5.699-4.438 11.2-7.603 15.7-8.308 11.807-19.823 18.741-34.393 20.112-4.418.416-8.851.672-13.746 1m23.362-80.87c-3.02-8.579-13.899-16.291-21.968-15.051-12.196 1.875-20.294 9.854-21.348 23.682h44.99c-.49-2.857-.919-5.368-1.674-8.632zM1989 108.046c2.221 12.863.647 24.852-3.868 36.555-7.202 18.67-20.98 29.595-40.31 33.248-17.735 3.35-34.775.684-49.655-9.943-12.444-8.887-18.974-21.667-21.215-36.789-1.837-12.397-.874-24.358 2.917-36.376 6.893-21.852 28.793-35.837 49.852-35.774 10.369.031 20.505.11 30.419 4.433 14.28 6.226 23.335 16.861 28.746 30.948 1.611 4.195 2.107 8.818 3.114 13.698m-39.01-16.56c-4.163-2.084-8.138-5.308-12.527-6.038-12.429-2.067-26.465 1.174-30.255 17.09-1.838 7.722-2.344 15.988-2.008 23.946.467 11.081 7.77 24.503 21.177 26.036 11.635 1.33 26.178-3.187 30.004-17.132 2.535-9.241 3.292-18.476 1.248-27.598-1.237-5.515-4.67-10.538-7.638-16.303z"/><path fill="#58A6FF" d="M54 199.94v7.741H12.295V10.315H54V199.94z"/><path fill="#8B949E" d="M1339.822 62c3.157-.38 4.472.458 4.233 3.477-.249 3.144-.055 6.323-.055 8.963 5.216-3.91 10.42-8.222 16.06-11.86 2.743-1.77 6.238-2.94 9.499-3.245 14.57-1.366 28.65-.845 39.595 11.22 6.11 6.736 8.538 14.92 8.676 23.383.439 26.822.136 53.657.108 80.486 0 .31-.16.618-.336 1.25H1387v-5.45c0-20.665.058-41.33-.05-61.993a73.353 73.353 0 0 0-1.098-12.278c-1.152-6.547-6.814-10.38-14.757-10.988-17.02-1.3-26.299 8.657-26.146 24.874.206 21.813.051 43.63.051 65.802h-30.702V62h25.524zM1118.738 175.336c-14.37-3.743-29.582-15.713-30.253-36.32 9.881 0 19.757-.062 29.628.106.9.016 2.423 1.412 2.564 2.334 1.467 9.587 9.048 12.125 16.618 13.242 5.695.841 11.816-.22 17.599-1.263 4.662-.84 7.824-4.131 8.067-9.225.26-5.446-3.544-7.844-7.946-9.21-12.259-3.8-24.646-7.192-36.873-11.092-11.078-3.533-20.885-9.67-23.897-21.382-4.663-18.137.774-34.617 23.044-40.968 16.003-4.563 32.55-4.33 48.698.528 12.797 3.85 20.04 12.93 22.974 25.68.647 2.813.88 5.722 1.396 9.217-9.625 0-18.575.083-27.518-.12-.962-.022-2.456-1.554-2.739-2.637-2.315-8.858-6.806-10.883-15.246-12.04-4.782-.656-9.833.288-14.72.873-3.62.433-6.606 2.155-7.11 6.276-.544 4.454 1.113 7.995 5.456 9.394 11.125 3.583 22.357 6.831 33.524 10.283 8.857 2.737 18.02 4.726 24.705 12.107 5.66 6.25 6.613 13.598 6.535 21.556-.081 8.252-2.775 15.316-7.985 21.59-7.328 8.826-17.33 11.998-28.138 13.771-12.902 2.117-25.523.81-38.383-2.7zM1599 112V62.312h30.74v113.286H1599V112zM1599 25.143c.09-1.925.18-3.365.28-4.961h30.408v28.555H1599V25.143z"/><path <svg xmlns="http://www.w3.org/2000/svg" xml:space="preserve" viewBox="0 0 2000 236"><path fill="none" d="M1527 237H1.085V1.098h1999.888V237H1527M538.5 84h-57.735V10.386h-41.533v197.35h41.883v-88.412h76.12v88.29h41.534V10.265h-41.884V84H538.5m87.002 124h132.147v-36.29H648.235v-49.768h96.468V86.82h-96.345V44.697h104.399V10.27H607.294V208H625.5M384.5 81c-10.332 0-20.67-.205-30.993.094-4.528.132-5.636-1.521-5.59-5.785.196-17.995.1-35.994.074-53.991-.01-6.871-4.293-11.276-11.02-11.305-10.665-.047-21.33-.058-31.995.003-7.812.044-11.966 4.221-11.972 11.909-.013 17.497-.001 34.995-.006 52.492-.002 6.572-.01 6.58-6.609 6.581-17.164.005-34.328-.007-51.493.007-7.024.006-13.82 3.666-13.07 12.861.781 9.602.669 19.35.035 28.973-.642 9.757 4.548 14.284 14.391 14.2 16.997-.143 33.998.128 50.99-.146 4.776-.077 5.907 1.553 5.849 6.046-.226 17.328.339 34.676-.276 51.985-.3 8.417 5.911 13.459 13.02 13.178 10.15-.4 20.327-.089 30.492-.107 7.507-.013 11.66-4.154 11.668-11.66.017-17.83.152-35.663-.095-53.49-.064-4.64 1.323-6.009 5.952-5.944 17.66.246 35.327.121 52.991.088 7.233-.014 11.693-2.689 12.279-9.782.953-11.537 1.296-23.268.29-34.777-.816-9.322-4.688-11.426-14.415-11.43-6.499-.002-12.998 0-20.497 0M952 195.487V136c16.143 0 31.637-.366 47.106.107 14.33.438 26.94-3.612 38.352-12.05 7.78-5.753 13.782-12.8 17.619-21.811 5.254-12.339 6.94-24.886 5.06-38.261-2.078-14.777-7.926-27.606-18.595-37.703-11.954-11.312-26.828-16.254-43.272-16.273-27.5-.032-54.998-.009-82.498-.009h-5.508v198H952v-12.513m868.253-133.432c-5.766-2.88-11.94-2.913-18.228-3.154-18.137-.695-36.21 13.81-43.081 30.435-6.78 16.406-6.886 33.058-2.9 49.939 7.048 29.851 31.789 41.53 58.39 36.39 7.927-1.532 15.54-4.53 20.566-13.675 0 5.777-.016 9.754.004 13.73.032 6.716-.835 13.288-6.054 18.05-3.046 2.778-6.639 5.275-10.42 6.869-9.809 4.134-19.184 3.095-28.367-2.764-6.37-4.064-6.796-10.58-8.634-16.539h-28.6c.408 1.953.999 3.529 1.026 5.114.317 18.234 14.701 33.28 30.023 38.672 12.448 4.38 25.043 4.97 37.876 2.868 14.743-2.415 27.087-8.56 35.584-21.656 6.062-9.343 8.337-19.608 8.435-30.235.333-36.149.127-72.303.127-108.455V62.36h-31.194v10.192c-4.566-3.33-9.221-6.724-14.553-10.497M189.5 10H62.34v35.262h59.96V207.77h41.727V44.935h58.676V10H189.5m648 161h-33.736V10.386h-41.53v197.352h138.47V171H837.5m684.125-112c-16.121-.636-31.209 12.62-36.591 25.471-5.585 13.335-7.548 27.102-6.206 41.661 1.488 16.132 6.54 30.11 18.325 41.647 13.038 12.764 40.627 15.918 55.344 2.245 1.995-1.853 4.041-3.65 6.763-6.103v11.692h29.48V20c-8.712 0-17.174.173-25.622-.077-3.91-.116-5.253 1.058-5.197 5.087.21 14.994.096 29.992.074 44.988-.001 1.167-.23 2.335-.399 3.946-10.531-11.45-20.292-16.003-35.971-14.945M1228.65 178c.833.005 1.69-.121 2.494.033 15.459 2.965 29.072-1.263 41.782-10.835.39 1.866.454 3.678 1.175 5.172.667 1.384 2.007 3.427 3.106 3.463 8.769.283 17.55.158 26.133.158.331-.772.567-1.063.564-1.352-.291-27.407.183-54.855-1.234-82.205-.725-13.984-8.072-25.5-24.154-30.703-9.532-3.084-19.16-2.663-28.85-2.73-10.144-.069-19.666 1.817-28.532 7.278-9.856 6.07-17.364 20.267-15.647 32.481h28.2c1.625-9.214 7.032-15.153 14.529-15.704 3.86-.284 7.773-.27 11.635 0 6.435.448 11.927 5.495 12.148 10.8.254 6.098-3.689 9.971-11.274 11.147-6.286.974-12.651 1.634-18.823 3.098-8.344 1.979-16.95 3.678-24.69 7.168-9.78 4.409-13.639 13.307-15.516 23.903-3.463 19.54 6.132 35.499 26.954 38.828m461.07 1c4.427-.33 8.86-.586 13.278-1.002 14.57-1.37 26.085-8.305 34.393-20.112 3.165-4.5 4.904-10.001 7.603-15.7-11.661 0-21.957 0-32.253.003-4.212 10.467-15.477 13.51-24.909 11.52-12.859-2.712-18.549-12.892-19.531-26.736h78.613c-1.372-10.3-1.784-20.196-4.148-29.602-3.872-15.41-11.842-28.286-27.487-34.615-11.955-4.836-24.394-4.865-36.837-2.72-19.842 3.418-32.477 15.694-38.22 34.354-5.431 17.644-4.51 35.665 1.867 53.071 3.648 9.957 9.1 18.472 19.195 23.81 8.774 4.64 18.04 6.22 28.437 7.729M1989 107.593c-1.007-4.427-1.503-9.05-3.114-13.245-5.411-14.087-14.466-24.722-28.746-30.948-9.914-4.322-20.05-4.402-30.419-4.433-21.059-.063-42.959 13.922-49.852 35.774-3.79 12.018-4.754 23.98-2.917 36.376 2.241 15.122 8.77 27.902 21.215 36.79 14.88 10.626 31.92 13.293 49.655 9.942 19.33-3.653 33.108-14.578 40.31-33.248 4.515-11.703 6.09-23.692 3.868-37.008M54 199.449V10.315H12.295v197.366H54v-8.232M1339.34 62h-25.043v113.64H1345c0-22.172.155-43.988-.051-65.8-.153-16.218 9.126-26.176 26.146-24.875 7.943.607 13.605 4.44 14.757 10.988a73.353 73.353 0 0 1 1.099 12.278c.107 20.664.049 41.328.049 61.993v5.45h30.602c.175-.632.336-.94.336-1.25.028-26.83.33-53.664-.108-80.486-.138-8.462-2.565-16.647-8.676-23.383-10.945-12.065-25.026-12.586-39.595-11.22-3.261.306-6.756 1.476-9.499 3.245-5.64 3.638-10.844 7.95-16.06 11.86 0-2.64-.194-5.82.055-8.963.24-3.019-1.076-3.858-4.714-3.477m-220.265 113.57c12.522 3.276 25.143 4.583 38.045 2.466 10.807-1.773 20.81-4.945 28.138-13.77 5.21-6.275 7.904-13.339 7.985-21.591.078-7.958-.875-15.306-6.535-21.556-6.686-7.381-15.848-9.37-24.705-12.107-11.167-3.452-22.4-6.7-33.524-10.283-4.343-1.399-6-4.94-5.456-9.394.504-4.121 3.49-5.843 7.11-6.276 4.887-.585 9.938-1.53 14.72-.874 8.44 1.158 12.931 3.183 15.246 12.04.283 1.084 1.777 2.616 2.739 2.638 8.943.203 17.893.12 27.518.12-.517-3.495-.749-6.404-1.396-9.217-2.935-12.75-10.177-21.83-22.974-25.68-16.147-4.857-32.695-5.091-48.698-.528-22.27 6.35-27.707 22.831-23.044 40.968 3.012 11.712 12.82 17.85 23.897 21.382 12.227 3.9 24.614 7.291 36.873 11.093 4.402 1.365 8.206 3.763 7.946 9.21-.243 5.093-3.405 8.384-8.067 9.224-5.783 1.043-11.904 2.104-17.6 1.263-7.57-1.117-15.15-3.655-16.617-13.242-.141-.922-1.663-2.318-2.564-2.334-9.871-.168-19.747-.105-29.628-.105.671 20.606 15.883 32.576 30.59 36.553M1599 112.5v63.098h30.74V62.312H1599V112.5m0-86.872v23.109h30.688V20.182h-30.408c-.1 1.596-.19 3.036-.28 5.446z"/><path fill="#58A6FF" d="M538.999 84h17.886V10.263h41.884v197.352h-41.534v-88.291h-76.12v88.411h-41.883V10.386h41.533V84h58.234zM625.001 208h-17.707V10.27h145.463v34.427H648.358v42.122h96.345v35.123h-96.468v49.768h109.413V208H625.001z"/><path fill="#BF1E2D" d="M385 81c7 0 13.498-.002 19.997 0 9.727.004 13.6 2.108 14.415 11.43 1.006 11.509.663 23.24-.29 34.777-.586 7.093-5.046 9.768-12.279 9.782-17.664.033-35.33.158-52.991-.088-4.629-.065-6.016 1.304-5.952 5.944.247 17.827.112 35.66.095 53.49-.007 7.506-4.161 11.647-11.668 11.66-10.165.018-20.342-.294-30.491.107-7.11.28-13.32-4.76-13.021-13.178.615-17.309.05-34.657.276-51.985.058-4.493-1.073-6.123-5.848-6.046-16.993.274-33.994.003-50.99.147-9.844.083-15.034-4.444-14.392-14.201.634-9.624.746-19.371-.036-28.973-.75-9.195 6.047-12.855 13.071-12.86 17.165-.015 34.329-.003 51.493-.008 6.599-.001 6.607-.01 6.609-6.58.005-17.498-.007-34.996.006-52.493.006-7.688 4.16-11.865 11.972-11.91 10.664-.06 21.33-.049 31.995-.002 6.727.03 11.01 4.434 11.02 11.305.026 17.997.122 35.996-.074 53.991-.046 4.264 1.062 5.917 5.59 5.785C363.83 80.794 374.168 81 385 81z"/><path fill="#58A6FF" d="M952 195.984V208H910.264V10h5.508c27.5 0 54.999-.023 82.498.009 16.444.02 31.318 4.96 43.272 16.273 10.67 10.097 16.517 22.926 18.595 37.703 1.88 13.375.194 25.922-5.06 38.26-3.837 9.012-9.84 16.06-17.62 21.812-11.411 8.438-24.02 12.488-38.351 12.05-15.469-.473-30.963-.107-47.106-.107v59.984m0-100.57v6.584c15.216 0 29.86.394 44.466-.176 6.702-.262 13.458-1.986 18.552-7.298 7.418-7.736 10.077-16.724 8.023-27.279-1.779-9.138-6.207-16.424-15.294-19.112-6.613-1.955-13.722-2.723-20.651-3.005C975.519 44.658 963.909 45 952 45v50.414z"/><path fill="#8B949E" d="M1820.591 62.244c4.994 3.584 9.649 6.978 14.215 10.308V62.36H1866v5.284c0 36.152.206 72.306-.127 108.455-.098 10.627-2.373 20.892-8.435 30.235-8.497 13.095-20.841 19.24-35.584 21.656-12.833 2.101-25.428 1.513-37.876-2.868-15.322-5.391-29.706-20.438-30.023-38.672-.027-1.585-.618-3.16-1.025-5.114h28.599c1.838 5.96 2.265 12.475 8.634 16.539 9.183 5.859 18.558 6.898 28.368 2.764 3.78-1.594 7.373-4.09 10.419-6.87 5.219-4.76 6.086-11.333 6.054-18.049-.02-3.976-.004-7.953-.004-13.73-5.025 9.145-12.64 12.143-20.566 13.675-26.601 5.14-51.342-6.539-58.39-36.39-3.986-16.88-3.88-33.533 2.9-49.939 6.87-16.626 24.944-31.13 43.08-30.435 6.289.24 12.463.274 18.567 3.343m13.544 70.212c.287-7.279 1.641-14.709.633-21.803-1.912-13.448-6.02-24.47-23.425-24.881-7.71-.182-16.61 1.243-21.538 11.787-5.973 12.781-6.426 26.342-1.24 38.75 5.805 13.887 16.378 18.954 30.381 14.482 8.117-2.592 12.608-9.457 15.19-18.335z"/><path fill="#58A6FF" d="M190 10h32.703v34.935h-58.676V207.77H122.3V45.262H62.34V10H190zM838 171h62.705v36.738H762.234V10.386h41.53V171H838z"/><path fill="#8B949E" d="M1522.106 59c15.198-1.058 24.959 3.494 35.49 14.945.17-1.611.398-2.779.4-3.946.021-14.996.135-29.994-.075-44.988-.056-4.03 1.287-5.203 5.197-5.087 8.448.25 16.91.077 25.622.077v155.612h-29.48V163.92c-2.722 2.453-4.768 4.25-6.763 6.103-14.717 13.673-42.306 10.52-55.344-2.245-11.786-11.537-16.837-25.515-18.325-41.647-1.342-14.559.621-28.326 6.206-41.66 5.382-12.851 20.47-26.108 37.072-25.472m22.178 27.987c-13.124-4.637-26.909.297-31.016 11.567-4.816 13.216-4.986 26.649-.025 39.914 3.11 8.314 14.816 16.457 22.099 15.487 10.882-1.45 17.764-7.604 21.817-17.834 3.564-8.999 2.777-18.179 1.516-27.08-1.254-8.852-4.366-17.585-14.391-22.054zM1228.208 178c-20.38-3.33-29.975-19.289-26.512-38.828 1.877-10.596 5.737-19.494 15.515-23.903 7.74-3.49 16.347-5.19 24.69-7.168 6.173-1.464 12.538-2.124 18.824-3.098 7.585-1.176 11.528-5.049 11.274-11.146-.221-5.306-5.713-10.353-12.148-10.801a81.667 81.667 0 0 0-11.635 0c-7.497.551-12.904 6.49-14.529 15.704h-28.2c-1.717-12.214 5.791-26.41 15.647-32.481 8.866-5.461 18.388-7.347 28.532-7.277 9.69.066 19.318-.355 28.85 2.73 16.082 5.202 23.429 16.718 24.154 30.702 1.417 27.35.943 54.798 1.234 82.205.003.29-.233.58-.564 1.352-8.582 0-17.364.125-26.133-.158-1.1-.036-2.439-2.08-3.106-3.463-.721-1.494-.785-3.306-1.175-5.172-12.71 9.572-26.323 13.8-41.782 10.835-.804-.154-1.661-.028-2.936-.034m31.204-24.855c11.73-7.375 15.087-18.317 13.401-30.673-6.597 1.494-13.383 2.825-20.051 4.598-6.21 1.651-13.026 2.25-17.345 8.015-3.208 4.282-4.542 8.904-2.455 14.18 1.874 4.742 5.566 6.932 10.306 6.64 5.213-.321 10.377-1.466 16.144-2.76zM1689.252 178.999c-9.928-1.509-19.194-3.087-27.968-7.727-10.095-5.34-15.547-13.854-19.195-23.811-6.377-17.406-7.298-35.427-1.868-53.071 5.744-18.66 18.38-30.936 38.22-34.355 12.444-2.144 24.883-2.115 36.838 2.721 15.645 6.33 23.615 19.205 27.487 34.615 2.364 9.406 2.776 19.302 4.148 29.602H1668.3c.982 13.844 6.672 24.024 19.531 26.736 9.432 1.99 20.697-1.053 24.91-11.522l32.252-.001c-2.7 5.699-4.438 11.2-7.603 15.7-8.308 11.807-19.823 18.741-34.393 20.112-4.418.416-8.851.672-13.746 1m23.362-80.87c-3.02-8.579-13.899-16.291-21.968-15.051-12.196 1.875-20.294 9.854-21.348 23.682h44.99c-.49-2.857-.919-5.368-1.674-8.632zM1989 108.046c2.221 12.863.647 24.852-3.868 36.555-7.202 18.67-20.98 29.595-40.31 33.248-17.735 3.35-34.775.684-49.655-9.943-12.444-8.887-18.974-21.667-21.215-36.789-1.837-12.397-.874-24.358 2.917-36.376 6.893-21.852 28.793-35.837 49.852-35.774 10.369.031 20.505.11 30.419 4.433 14.28 6.226 23.335 16.861 28.746 30.948 1.611 4.195 2.107 8.818 3.114 13.698m-39.01-16.56c-4.163-2.084-8.138-5.308-12.527-6.038-12.429-2.067-26.465 1.174-30.255 17.09-1.838 7.722-2.344 15.988-2.008 23.946.467 11.081 7.77 24.503 21.177 26.036 11.635 1.33 26.178-3.187 30.004-17.132 2.535-9.241 3.292-18.476 1.248-27.598-1.237-5.515-4.67-10.538-7.638-16.303z"/><path fill="#58A6FF" d="M54 199.94v7.741H12.295V10.315H54V199.94z"/><path fill="#8B949E" d="M1339.822 62c3.157-.38 4.472.458 4.233 3.477-.249 3.144-.055 6.323-.055 8.963 5.216-3.91 10.42-8.222 16.06-11.86 2.743-1.77 6.238-2.94 9.499-3.245 14.57-1.366 28.65-.845 39.595 11.22 6.11 6.736 8.538 14.92 8.676 23.383.439 26.822.136 53.657.108 80.486 0 .31-.16.618-.336 1.25H1387v-5.45c0-20.665.058-41.33-.05-61.993a73.353 73.353 0 0 0-1.098-12.278c-1.152-6.547-6.814-10.38-14.757-10.988-17.02-1.3-26.299 8.657-26.146 24.874.206 21.813.051 43.63.051 65.802h-30.702V62h25.524zM1118.738 175.336c-14.37-3.743-29.582-15.713-30.253-36.32 9.881 0 19.757-.062 29.628.106.9.016 2.423 1.412 2.564 2.334 1.467 9.587 9.048 12.125 16.618 13.242 5.695.841 11.816-.22 17.599-1.263 4.662-.84 7.824-4.131 8.067-9.225.26-5.446-3.544-7.844-7.946-9.21-12.259-3.8-24.646-7.192-36.873-11.092-11.078-3.533-20.885-9.67-23.897-21.382-4.663-18.137.774-34.617 23.044-40.968 16.003-4.563 32.55-4.33 48.698.528 12.797 3.85 20.04 12.93 22.974 25.68.647 2.813.88 5.722 1.396 9.217-9.625 0-18.575.083-27.518-.12-.962-.022-2.456-1.554-2.739-2.637-2.315-8.858-6.806-10.883-15.246-12.04-4.782-.656-9.833.288-14.72.873-3.62.433-6.606 2.155-7.11 6.276-.544 4.454 1.113 7.995 5.456 9.394 11.125 3.583 22.357 6.831 33.524 10.283 8.857 2.737 18.02 4.726 24.705 12.107 5.66 6.25 6.613 13.598 6.535 21.556-.081 8.252-2.775 15.316-7.985 21.59-7.328 8.826-17.33 11.998-28.138 13.771-12.902 2.117-25.523.81-38.383-2.7zM1599 112V62.312h30.74v113.286H1599V112zM1599 25.143c.09-1.925.18-3.365.28-4.961h30.408v28.555H1599V25.143z"/><path d="M952 94.922V45c11.909 0 23.519-.342 35.096.128 6.929.282 14.038 1.05 20.65 3.005 9.088 2.688 13.516 9.974 15.295 19.112 2.054 10.555-.605 19.543-8.023 27.279-5.094 5.312-11.85 7.036-18.552 7.298-14.606.57-29.25.176-44.466.176v-7.076zM1834.074 132.867c-2.52 8.467-7.01 15.332-15.128 17.924-14.003 4.472-24.576-.595-30.38-14.482-5.187-12.408-4.734-25.969 1.239-38.75 4.927-10.544 13.828-11.97 21.538-11.787 17.405.41 21.513 11.433 23.425 24.88 1.008 7.095-.346 14.525-.694 22.215zM1544.68 87.02c9.629 4.436 12.741 13.169 13.995 22.02 1.26 8.902 2.048 18.082-1.516 27.08-4.053 10.23-10.935 16.386-21.817 17.835-7.283.97-18.99-7.173-22.099-15.487-4.961-13.265-4.79-26.698.025-39.914 4.107-11.27 17.892-16.204 31.412-11.535zM1259.12 153.398c-5.475 1.04-10.639 2.185-15.852 2.506-4.74.292-8.432-1.898-10.306-6.64-2.087-5.276-.753-9.898 2.455-14.18 4.32-5.766 11.135-6.364 17.345-8.015 6.668-1.773 13.454-3.104 20.051-4.598 1.686 12.356-1.67 23.298-13.692 30.927zM1712.777 98.503c.592 2.888 1.022 5.4 1.51 8.256h-44.989c1.054-13.828 9.152-21.807 21.348-23.682 8.07-1.24 18.948 6.472 22.13 15.426zM1950.251 91.748c2.707 5.504 6.141 10.527 7.378 16.042 2.044 9.122 1.287 18.357-1.248 27.598-3.826 13.945-18.369 18.463-30.004 17.132-13.407-1.533-20.71-14.955-21.177-26.036-.336-7.958.17-16.224 2.008-23.946 3.79-15.916 17.826-19.157 30.255-17.09 4.39.73 8.364 3.954 12.788 6.3z"/></svg>
 d="M952 94.922V45c11.909 0 23.519-.342 35.096.128 6.929.282 14.038 1.05 20.65 3.005 9.088 2.688 13.516 9.974 15.295 19.112 2.054 10.555-.605 19.543-8.023 27.279-5.094 5.312-11.85 7.036-18.552 7.298-14.606.57-29.25.176-44.466.176v-7.076zM1834.074 132.867c-2.52 8.467-7.01 15.332-15.128 17.924-14.003 4.472-24.576-.595-30.38-14.482-5.187-12.408-4.734-25.969 1.239-38.75 4.927-10.544 13.828-11.97 21.538-11.787 17.405.41 21.513 11.433 23.425 24.88 1.008 7.095-.346 14.525-.694 22.215zM1544.68 87.02c9.629 4.436 12.741 13.169 13.995 22.02 1.26 8.902 2.048 18.082-1.516 27.08-4.053 10.23-10.935 16.386-21.817 17.835-7.283.97-18.99-7.173-22.099-15.487-4.961-13.265-4.79-26.698.025-39.914 4.107-11.27 17.892-16.204 31.412-11.535zM1259.12 153.398c-5.475 1.04-10.639 2.185-15.852 2.506-4.74.292-8.432-1.898-10.306-6.64-2.087-5.276-.753-9.898 2.455-14.18 4.32-5.766 11.135-6.364 17.345-8.015 6.668-1.773 13.454-3.104 20.051-4.598 1.686 12.356-1.67 23.298-13.692 30.927zM1712.777 98.503c.592 2.888 1.022 5.4 1.51 8.256h-44.989c1.054-13.828 9.152-21.807 21.348-23.682 8.07-1.24 18.948 6.472 22.13 15.426zM1950.251 91.748c2.707 5.504 6.141 10.527 7.378 16.042 2.044 9.122 1.287 18.357-1.248 27.598-3.826 13.945-18.369 18.463-30.004 17.132-13.407-1.533-20.71-14.955-21.177-26.036-.336-7.958.17-16.224 2.008-23.946 3.79-15.916 17.826-19.157 30.255-17.09 4.39.73 8.364 3.954 12.788 6.3z"/></svg>
