<svg xmlns="http://www.w3.org/2000/svg" xml:space="preserve" viewBox="0 10 1180 160">
    <path fill="none" fill-rule="evenodd" d="M913 176H1V1h1210v175H913M652.676 71c-3.29.628-3.76-1.05-3.735-3.922.128-14.829.132-29.66-.05-44.489-.02-1.53-1.513-4.332-2.401-4.363-9.082-.326-18.18-.2-27.139-.2v139.59h29.829V96.27h52.948v61.397h29.514V18.214h-29.659V71h-49.307m195.322 84.29v-23.324h-76.713V96.841h67.366V71.714h-67.415V42.94H844.7V18.327H742.353v139.671c34.5 0 68.65.014 102.799-.073.947-.002 1.89-1.092 2.846-2.635m217.958-83.271c-.318-6.084-.076-12.26-1.058-18.236-3.054-18.595-19.298-33.509-38.641-33.742-16.497-.199-33-.041-49.499-.041H961.27v137.695h28.933V108c3.794 0 7.115.077 10.432-.014 10.752-.297 21.588.061 32.227-1.211 8.805-1.053 16.798-5.363 22.797-12.163 5.432-6.158 8.535-13.631 10.297-22.593M589.485 99c2.832 0 5.664.006 8.496-.001 6.442-.018 7.996-1.52 8.016-7.78.015-4.998.01-9.996.002-14.993-.011-7.18-1.943-9.18-9.109-9.214-9.662-.047-19.327-.134-28.986.05-3.642.068-5.05-1.084-4.968-4.852.2-9.324.09-18.657.055-27.986-.023-6.285-1.98-8.186-8.382-8.218-5.498-.028-10.995-.036-16.493.003-6.048.042-8.075 2.017-8.104 7.99-.045 9.161-.23 18.332.08 27.484.154 4.512-1.485 5.718-5.77 5.6-9.656-.265-19.324-.157-28.985-.054-6.149.065-8.306 2.368-8.332 8.469a2445.74 2445.74 0 0 0-.003 15.493c.014 6.438 1.518 7.995 7.788 8.005 9.996.016 19.991.043 29.987-.013 3.604-.02 5.403 1.152 5.3 5.215-.243 9.49-.097 18.99-.07 28.485.017 5.573 1.786 7.29 7.475 7.312 6.164.023 12.328.038 18.492-.005 5.592-.039 6.993-1.444 7.015-7.083.038-9.496.188-18.997-.068-28.486-.116-4.276 1.743-5.51 5.579-5.449 6.662.106 13.327.029 20.985.028M423 64.5v93.163h30.242V42.721h41.53V18.24H381.271v24.883H423V64.5M856 40.5v117.153h97.619v-25.825h-68.672V20.294H856V40.5M350.57 158h22.107V18.346h-29.35V158h7.243m781.93-82c-17.324 0-34.647.044-51.97-.034-3.656-.017-5.57 1.228-5.557 5.144.06 18.99.075 37.979-.02 56.968-.015 3.152 1.313 3.997 4.212 3.962 9.16-.11 18.323-.04 27.484-.04h6.125v10.038h-15.499v5.706h51.441c1.077-4.388-.416-6.117-4.768-5.804-3.907.282-7.85.06-11.577.06v-10c11.356 0 22.346-.173 33.326.088 4.177.1 5.442-1.177 5.392-5.374-.21-17.82-.293-35.65.027-53.467.105-5.855-1.733-7.325-7.633-7.271-9.994.09-19.989.025-30.983.025M153.077 31.627c7.888-1.967 10.278-.325 10.893 7.665.178 2.318.03 4.661.03 6.993v24.44h12.997c0-12.731.552-25.23-.31-37.631-.289-4.147-3.31-9.117-6.62-11.834-7.48-6.136-19.438-4.423-26.362 2.622-5.754-6.696-13.115-6.828-20.944-5.17-7.634 1.616-11.078 7.55-11.51 14.1-.83 12.553-.241 25.199-.241 37.913H124c0-9.569-.061-18.866.044-28.16.026-2.245.86-4.482.873-6.725.026-4.173 2.85-5.508 5.991-5.198 3.613.358 6.206 2.422 6.144 6.845-.157 11.089-.052 22.182-.052 33.17h14c0-10.657-.115-20.973.088-31.283.046-2.323 1.198-4.626 1.99-7.747M215.223 72c11.887-.477 21.981-9.723 23.613-21.345 1.548-11.024-.967-21.074-10.727-28.06-5.73-4.101-12.209-4.743-19.046-4.671-10.605.112-18.29 5.17-22.91 14.108-4.63 8.957-4.487 18.506.853 27.388 6.185 10.287 15.763 13.648 28.217 12.58M32.474 19h-17.11v51.779h13.594V55.25l1.299-1.042c1.61 1.396 3.588 2.541 4.752 4.242 2.194 3.206 3.776 6.826 5.917 10.073.746 1.13 2.353 2.286 3.632 2.365 4.59.283 9.207.11 14.372.11L47.795 53.852c.819-.87 1.386-1.74 2.18-2.273 6.18-4.156 7.742-10.456 6.855-17.105-.94-7.045-4.084-13.167-12.146-14.52-3.69-.618-7.48-.653-12.21-.953m290.91 12h5.299V19.346h-39.308v51.426h39.364V58.894H303.32v-9.116h20.297V38.83h-20.358V31h20.125M78 53.56c-.457-2.805.675-3.726 3.53-3.622 5.756.21 11.526.062 17.104.062V38.862H78.242v-7.947h25.445V19.344H64.374V70.77h39.364V58.89H78v-5.33m163.013-24.284c1.116.574 2.206 1.57 3.355 1.644 3.426.22 6.876.08 10.754.08v39.68h14.093V30.738h13.57V19.234h-41.783c0 3.178 0 6.136.01 10.042z"/>
    <path fill="#58A6FF" d="M653.16 71h48.823V18.214h29.66v139.453h-29.515V96.27H649.18v61.345H619.35V18.026c8.96 0 18.057-.126 27.139.2.888.031 2.382 2.833 2.4 4.363.183 14.828.18 29.66.05 44.49-.024 2.872.447 4.549 4.22 3.92zM847.993 155.77c-.95 1.063-1.894 2.153-2.841 2.155-34.149.087-68.298.073-102.8.073V18.327h102.35V42.94h-73.466v28.773h67.415V96.84h-67.366v35.125h76.713c0 8.084 0 15.704-.005 23.804zM1065.796 72.442c-1.602 8.539-4.705 16.012-10.137 22.17-5.999 6.8-13.992 11.11-22.797 12.163-10.639 1.272-21.475.914-32.227 1.21-3.317.092-6.638.015-10.432.015v49.695H961.27V20h15.488c16.5 0 33.002-.158 49.499.041 19.343.233 35.587 15.147 38.641 33.742.982 5.976.74 12.152.898 18.66m-75.783-26.7v37.238c11.8 0 23.202.616 34.5-.196 8.967-.644 15.045-8.698 15.562-17.348.525-8.782-4.689-18.85-14.576-20.3-6.646-.974-13.458-.993-20.2-1.073a62.72 62.72 0 0 0-15.286 1.68z"/>
    <path fill="#BF1E2D" d="M588.988 99c-7.161 0-13.826.078-20.488-.028-3.836-.06-5.695 1.173-5.58 5.45.257 9.488.107 18.989.07 28.485-.023 5.639-1.424 7.044-7.016 7.083-6.164.043-12.328.028-18.492.005-5.689-.022-7.458-1.739-7.474-7.312-.028-9.496-.174-18.996.068-28.485.104-4.063-1.695-5.235-5.3-5.215-9.995.056-19.99.029-29.986.013-6.27-.01-7.774-1.567-7.788-8.005-.01-5.164-.02-10.329.003-15.493.026-6.1 2.183-8.404 8.332-8.469 9.661-.103 19.33-.211 28.984.054 4.286.118 5.925-1.088 5.771-5.6-.31-9.152-.125-18.323-.08-27.485.029-5.972 2.056-7.947 8.104-7.99 5.498-.038 10.995-.03 16.493-.002 6.402.032 8.36 1.933 8.382 8.218.034 9.33.144 18.662-.055 27.986-.081 3.768 1.326 4.92 4.968 4.851 9.66-.183 19.324-.096 28.986-.05 7.166.035 9.098 2.034 9.109 9.215.007 4.997.013 9.995-.002 14.993-.02 6.26-1.574 7.762-8.016 7.78-2.832.007-5.664.001-8.993.001z"/>
    <path fill="#58A6FF" d="M423 64V43.124h-41.73V18.24h113.502v24.48h-41.53v114.943H423V64zM856 40V20.294h28.947v111.534h68.672v25.825H856V40zM350.08 158h-6.754V18.346h29.35V158H350.08z"/>
    <path fill="#59AAFF" d="M1133 76c10.494 0 20.49.067 30.483-.024 5.9-.054 7.738 1.416 7.633 7.271-.32 17.818-.237 35.646-.027 53.467.05 4.197-1.215 5.474-5.392 5.374-10.98-.261-21.97-.088-33.326-.088v10c3.727 0 7.67.222 11.577-.06 4.352-.313 5.845 1.416 4.768 5.804h-51.44v-5.706h15.498V142h-6.125c-9.161 0-18.324-.07-27.484.04-2.9.035-4.227-.81-4.211-3.962.094-18.99.08-37.979.019-56.968-.013-3.916 1.901-5.16 5.556-5.144 17.324.078 34.647.035 52.471.035M1092.52 130h71.174V82.297h-82.388V130h11.213zM153.003 32.032c-.717 2.716-1.87 5.019-1.915 7.342C150.885 49.684 151 60 151 70.656h-14c0-10.987-.105-22.08.052-33.17.062-4.422-2.53-6.486-6.144-6.844-3.14-.31-5.965 1.025-5.99 5.198-.015 2.243-.848 4.48-.874 6.724-.105 9.295-.044 18.592-.044 28.16h-12.99c0-12.713-.588-25.36.24-37.912.433-6.55 3.877-12.484 11.511-14.1 7.829-1.658 15.19-1.526 20.944 5.169 6.924-7.044 18.882-8.757 26.362-2.62 3.31 2.716 6.331 7.686 6.62 11.833.862 12.4.31 24.9.31 37.632H164v-24.44c0-2.333.148-4.676-.03-6.994-.615-7.99-3.005-9.632-10.967-7.26zM214.758 72c-11.988 1.068-21.566-2.293-27.75-12.58-5.34-8.882-5.483-18.43-.854-27.388 4.62-8.938 12.305-13.996 22.91-14.108 6.837-.072 13.316.57 19.046 4.671 9.76 6.986 12.275 17.036 10.727 28.06C237.205 62.277 227.11 71.523 214.758 72m-10.075-13.868c1.397.3 2.796.59 4.189.905 5.384 1.217 9.81-.388 13.2-4.67C225.495 50.045 226 45 224.384 40c-2.01-6.215-7.967-10.233-13.649-9.923-6.162.336-11.871 5.616-13.58 12.558-1.187 4.82 2.204 12.151 7.528 15.496zM32.966 19c4.238.3 8.027.335 11.718.954 8.062 1.352 11.206 7.474 12.146 14.52.887 6.648-.675 12.948-6.856 17.104-.793.534-1.36 1.404-2.179 2.273L58.93 70.999c-5.165 0-9.782.172-14.372-.111-1.28-.08-2.886-1.234-3.632-2.365-2.14-3.247-3.723-6.867-5.917-10.073-1.164-1.7-3.142-2.846-4.752-4.242l-1.299 1.042V70.78H15.365V19h17.601m-3.965 14.695v9.296c2.35 0 4.395.378 6.22-.095 2.35-.609 5.023-1.397 6.656-3.017 2.402-2.384 1.149-5.383-1.012-7.373-2.57-2.365-9.656-1.972-11.864 1.19zM322.897 31H303.26v7.831h20.358v10.947H303.32v9.116h25.42v11.878h-39.365V19.346h39.308V31h-5.786zM78 54.03v4.86h25.738v11.88H64.374V19.345h39.313v11.57H78.242v7.948h20.392V50c-5.578 0-11.348.148-17.105-.062-2.854-.104-3.986.817-3.529 4.092zM241.007 28.802c-.005-3.432-.005-6.39-.005-9.568h41.782v11.504h-13.57V70.68h-14.092V31c-3.878 0-7.328.14-10.754-.08-1.15-.074-2.239-1.07-3.361-2.118z"/>
    <path fill="#4E9DFF" d="M346.095 16.476c.35 1.811.867 4.085.87 6.36.048 46.027.037 92.054.04 138.54-.335-1.008-.961-2.473-.963-3.938-.044-46.833-.028-93.667.053-140.962z"/>
    <path fill="none" d="M990.058 45.265c5.111-.74 10.18-1.262 15.242-1.201 6.741.08 13.553.099 20.199 1.073 9.887 1.45 15.1 11.518 14.576 20.3-.517 8.65-6.595 16.704-15.561 17.348-11.3.812-22.7.196-34.501.196 0-12.02 0-24.63.045-37.716zM1092.023 130h-10.717V82.297h82.388V130h-71.671zM204.384 57.876c-5.025-3.089-8.416-10.42-7.23-15.24 1.71-6.942 7.42-12.222 13.581-12.558 5.682-.31 11.638 3.708 13.649 9.923 1.616 5 1.111 10.044-2.312 14.366-3.39 4.282-7.816 5.887-13.2 4.67-1.393-.315-2.792-.604-4.488-1.161zM29.006 33.227c2.203-2.693 9.29-3.086 11.859-.72 2.161 1.99 3.414 4.988 1.012 7.372-1.633 1.62-4.306 2.408-6.657 3.017-1.824.473-3.87.095-6.219.095 0-3.381 0-6.338.005-9.764z"/>
</svg>
