<svg xmlns="http://www.w3.org/2000/svg" xml:space="preserve" viewBox="0 0 4000 1800"><path d="M2926 1802H2V2H4002v1799.999L2926 1802M1696.977 233.932v615.534h130.836V571.704h241.156v93.466c0 30.662-.02 61.323.006 91.985.025 30.812-.114 61.627.086 92.161h130.738V228.864h-130.765v232.404h-241.839V228.696c-2.393-.155-4.01-.351-5.627-.352-38.993-.017-77.987-.015-116.98-.008-1.662 0-3.532-.362-4.923.277-1.174.54-1.792 2.29-2.688 5.32m534.701 616.038h468.177V738.815h-344.338V579.42h302.612c1.869-15.764 1.259-102.331-.846-110.045h-301.635V337.447h329.477V228.881h-456.802v8.298c0 201.31-.007 402.62.06 603.93.002 2.837.94 5.673 3.295 8.862M1269.981 777c.001 12.33-.064 24.66.02 36.99.155 22.908 13.105 35.926 35.956 35.983 33.659.083 67.318.051 100.977-.03 3.628-.009 7.383-.184 10.861-1.106 15.652-4.15 24.172-15.99 24.189-33.532.053-56.987.018-113.974.023-170.961.002-17.39 1.555-18.979 18.7-18.982 55.655-.012 111.31.018 166.963-.047 4.305-.005 8.683-.227 12.9-1.02 15.79-2.973 25.613-14.758 25.658-30.894.101-36.325.117-72.65-.007-108.976-.056-16.238-11.057-28.575-27.086-30.614-5.596-.712-11.27-1.116-16.91-1.125-53.654-.082-107.309-.049-160.963-.05-2.666 0-5.34.113-7.997-.042-7.49-.435-10.633-3.555-11.202-11.166-.199-2.652-.057-5.33-.057-7.996-.002-56.987.04-113.975-.027-170.962-.022-19.544-12.599-33.733-31.704-34.032-35.983-.563-71.985-.498-107.971-.026-18.593.245-31.584 14.106-32.29 32.726-.102 2.663-.032 5.332-.033 7.998 0 55.32 0 110.642-.003 165.963 0 2.665.167 5.352-.101 7.993-.622 6.116-3.356 8.813-9.555 9.434-2.641.265-5.327.107-7.993.107-51.322.005-102.644-.038-153.965.05-7.649.013-15.296.91-22.945.92-15.684.018-30.156 15.94-29.886 31.512.625 35.981.102 71.98.233 107.972.061 16.593 10.17 28.466 26.443 31.333 4.227.745 8.602.895 12.91.9 55.32.057 110.642.032 165.963.051 3.327.002 6.668.045 9.978.34 5.032.448 7.768 3.698 8.614 8.348.53 2.912.296 5.975.297 8.97.014 43.99.01 87.98.01 133.971m1912.015-196v268.384h130.631V624.331h11.534c44.328 0 88.66.37 132.98-.198 15.907-.204 32.093-1.174 47.622-4.366 69.04-14.19 116.99-53.912 140.42-120.962 12.547-35.906 13.644-73.008 7.193-110.459-15.36-89.17-85.697-159.124-189.775-159.873-89.984-.648-179.976-.136-269.965-.136h-10.64V581M2995 1049.995h-58.9v41.529c-3.679-4.622-5.693-7.145-7.7-9.674-14.778-18.623-33.53-31.541-56.62-37.12-41.281-9.971-80.143-3.594-115.508 20.186-35.305 23.74-56.683 57.623-68.001 98.034-9.572 34.179-10.166 69-5.2 103.99 3.007 21.194 8.136 41.835 17.302 61.28 18.509 39.265 47.991 65.76 90.38 77.024 18.54 4.927 37.518 5.976 56.52 4.954 35.592-1.916 67.31-12.074 88.595-45.708.202 3.313.408 5.149.411 6.985.025 16.661.174 33.324-.025 49.983-.273 22.856-9.642 41.328-28.21 54.614-28.958 20.719-61.14 23.844-94.27 13.725-26.143-7.985-41.816-26.328-44.59-54.391-.257-2.601-.98-5.156-1.513-7.874h-87.206c-.723 14.477 1.362 27.936 5.078 41.085 12.352 43.711 40.91 73.407 81.79 91.275 45.189 19.75 92.191 21.761 139.885 10.799 32.546-7.48 61.17-22.307 84.17-47.037 28.556-30.708 40.032-68.014 40.172-108.908.404-118.626.144-237.255.124-355.883 0-2.586-.257-5.172-.452-8.868h-36.232M697.659 619v230.399h130.49V337.474h187.254V229.166c-17.682-2.014-497.747-1.238-504.674.746-1.734 27.507-.926 100.035 1.31 107.76 30.857 0 61.831-.022 92.805.005 30.802.027 61.608-.123 92.815.102v281.22M3153.03 811v-75.227h-308.186v-506.87h-129.783v620.517h437.969V811M2159.2 1351c-.16-143.293-.319-286.585-.5-429.878 0-.276-.29-.57-.488-.822-.205-.26-.464-.477-.7-.712-15.168-1.885-84.408-1.174-91.847 1.126v85.705c0 14.665.034 29.33-.01 43.993-.042 13.96.203 27.932-.188 42.542-1.775-.869-2.14-.95-2.361-1.174a29.32 29.32 0 0 1-2.007-2.211c-34.461-42.795-79.316-56.3-132.064-45.949-45.441 8.917-75.593 37.386-95.175 77.966-13.356 27.674-18.954 57.27-20.386 87.925-1.633 34.945 1.094 69.26 12.798 102.37 11.225 31.754 28.832 59.275 56.749 79.136 30.444 21.659 64.572 28.874 101.38 25.194 30.683-3.067 56.025-15.985 75.181-40.45 1.955-2.497 4.023-4.905 6.04-7.354l1.77.44.677 38.345h91.13l.001-56.192m-1144.664 61.682c55.17 10.373 106.769 4.788 151.002-34.614 3.379 10.033 2.077 20.561 7.295 29.076 23.239 1.754 79.823 1.017 87.162-1.151.106-2.236.311-4.552.312-6.868.017-74.324.232-148.65-.186-222.971-.076-13.555-1.589-27.344-4.429-40.598-10.35-48.301-39.041-79.123-88.223-89.352-24.584-5.114-49.468-6.874-74.511-5.599-24.004 1.222-47.727 4.096-70.391 12.99-46.276 18.16-71.317 57.238-71.372 112.105h87.329c1.7-5.528 3.035-10.659 4.849-15.615 6.954-19.007 19.885-31.045 40.265-34.643 15.999-2.824 31.891-2.551 47.541 1.518 6.026 1.567 11.957 4.298 17.297 7.543 10.51 6.387 15.766 16.177 14.912 28.548-.896 12.987-6.827 23.076-19.473 27.743-8.082 2.982-16.433 5.588-24.888 7.136-23.897 4.376-47.942 7.94-71.869 12.163-22.741 4.013-44.808 10.192-64.708 22.466-17.726 10.933-29.596 26.505-36.434 46.08-5.684 16.27-7.035 33.19-7.1 50.196-.055 14.407 2.128 28.558 8.25 41.82 13.114 28.404 35.56 44.964 67.37 52.027M481.68 605V228.577H351.674v620.827h129.037c.433-1.21.836-1.812.836-2.413.064-79.997.098-159.994.133-241.99m2133.433 492.949c-20.405-27.264-47.425-44.28-80.436-52.136-30.307-7.213-60.8-7.361-91.2-1.477-51.575 9.983-89.07 38.645-111.55 86.381-12.565 26.68-17.474 55.022-18.066 84.314-.731 36.236 2.512 71.881 15.657 106.018 16.31 42.359 45.705 71.162 89.106 85.359 32.55 10.648 65.976 13.211 99.681 9.119 40.912-4.967 75.698-22.484 102.014-54.955 13.784-17.008 23.333-36.23 29.024-58.052h-97.403c-5.309 15.332-15.66 25.704-29.958 32.151-31.9 14.384-79.51 10.532-102.436-36.286-6.74-13.764-10.617-28.324-9.97-44.93h244.537c.919-22.715-.662-44.234-4.195-65.613-5.269-31.877-14.766-62.17-34.805-89.893m554.222 307.838c36.434 12.426 73.788 14.683 111.404 7.993 58.625-10.425 101.806-42.382 125.21-97.498 23.518-55.388 23.579-112.555 2.909-168.645-19.382-52.596-57.845-86.048-112.24-100.442-32.728-8.66-65.947-9.332-99.035-2.85-64.239 12.584-107.767 49.928-129.295 111.847-12.371 35.58-14.123 72.405-8.404 109.448 10.238 66.308 44.192 114.587 109.45 140.147M1390.328 1295c0-31.33-.465-62.67.239-93.984a145.981 145.981 0 0 1 5.217-35.375c6.303-22.731 21.673-36.913 44.876-42.17 15.17-3.436 30.433-3.116 45.637-.391 19.135 3.43 31.08 14.653 34.494 33.93 1.676 9.462 3.038 19.13 3.072 28.711.256 69.991.132 139.983.154 209.975.001 3.834.237 7.668.358 11.318h95.64v-11.49c0-77.324.06-154.649-.079-231.973-.016-9.296-.645-18.647-1.775-27.876-5.49-44.837-33.654-77.561-76.957-89.837-20.153-5.714-40.548-6.394-61.354-4.269-37.756 3.857-67.748 20.387-89.125 52.024-.94 1.39-2.337 2.473-4.995 5.223v-48.222h-89.507v356.556h94.106V1295m-641.124-113.07c-3.2-.92-6.485-1.616-9.584-2.8-11.795-4.512-23.704-8.79-35.226-13.93-7.605-3.392-12.634-9.704-14.372-18.125-2.968-14.389 3.08-25.516 17.811-30.268 23.073-7.444 46.557-7.134 69.948-1.22 16.317 4.124 26.364 14.815 30.93 30.857 1.079 3.792 2.14 7.588 3.146 11.16 16.652 1.726 83.143 1.065 90.855-1.048-.911-6.777-1.505-13.731-2.825-20.546-4.75-24.53-15.125-46.144-34.11-62.942-16.693-14.77-36.776-22.514-58.252-27.005-32.917-6.883-66.142-7.261-99.409-3.551-21.289 2.374-41.91 7.49-60.986 17.832-20.103 10.9-34.962 26.39-43.128 47.946-7.26 19.162-8.569 38.873-4.855 58.908 4.134 22.297 15.735 40.02 33.639 53.793 13.084 10.065 27.595 17.745 43.166 22.64 27.917 8.775 56.275 16.138 84.323 24.512 14.305 4.27 28.593 8.823 42.408 14.432 10.398 4.22 15.306 13.089 15.71 24.598.423 12.098-3.734 21.488-14.335 27.624-2.864 1.658-5.928 3.083-9.058 4.153-25.046 8.561-50.345 9.242-75.517 1.021-21.786-7.114-35.804-21.274-37.78-45.23-.047-.563-.63-1.08-.966-1.618-15.466-1.926-89.393-1.233-96.619 1.04.705 19.196 5.228 37.41 15.346 53.977 19.26 31.535 48.028 50.108 82.987 59.894 36.127 10.113 72.967 10.946 109.974 7.225 18.26-1.836 36.138-5.994 53.042-13.478 31.514-13.95 54.002-36.182 63.292-70.136 4.166-15.226 4.912-30.77 3.547-46.516-2.135-24.636-12.386-44.542-32.615-59.204-14.544-10.54-30.93-16.957-47.964-21.755-26.903-7.578-53.955-14.629-82.523-22.24M2192.8 1113v294.44c17.266 1.993 87.944 1.257 94.529-.755v-355.88H2192.8V1113M2231 919.987h-37.182c-2.139 16.513-1.43 80.794.758 87.469h92.764v-87.469h-56.34z"/><path fill="#FCFCFC" d="M1696.993 233.024c.88-2.122 1.498-3.871 2.672-4.41 1.39-.64 3.26-.277 4.923-.278 38.993-.007 77.987-.009 116.98.008 1.617.001 3.234.197 5.627.352v232.572h241.84V228.864h130.764v620.452H2069.06c-.2-30.534-.06-61.35-.086-92.16-.026-30.663-.006-61.324-.006-91.986v-93.466h-241.156v277.762h-130.836c0-205.163 0-410.348.016-616.442z"/><path fill="#FDFDFD" d="M2230.75 849.795c-1.427-3.013-2.365-5.85-2.366-8.686-.068-201.31-.061-402.62-.061-603.93v-8.298h456.802v108.566h-329.477v131.927h301.635c2.105 7.714 2.715 94.281.846 110.045h-302.612v159.396h344.338v111.156c-156.384 0-312.28 0-469.105-.176z"/><path fill="#BF1D2E" d="M1269.98 776c0-44.99.005-88.98-.009-132.97 0-2.996.233-6.059-.297-8.971-.846-4.65-3.582-7.9-8.614-8.348-3.31-.295-6.651-.338-9.978-.34-55.321-.019-110.642.006-165.963-.051-4.308-.005-8.683-.155-12.91-.9-16.274-2.867-26.382-14.74-26.443-31.333-.13-35.991.392-71.99-.233-107.972-.27-15.573 14.202-31.494 29.886-31.513 7.649-.009 15.296-.906 22.945-.92 51.321-.087 102.643-.044 153.965-.049 2.666 0 5.352.158 7.993-.107 6.199-.621 8.933-3.318 9.555-9.434.268-2.64.1-5.328.101-7.993.004-55.321.002-110.642.003-165.963 0-2.666-.069-5.335.032-7.998.707-18.62 13.698-32.481 32.291-32.726 35.986-.472 71.988-.537 107.971.026 19.105.3 31.682 14.488 31.704 34.032.067 56.987.025 113.975.027 170.962 0 2.666-.142 5.344.057 7.996.569 7.611 3.713 10.731 11.202 11.166 2.657.155 5.33.042 7.997.042 53.654.001 107.309-.032 160.963.05 5.64.009 11.314.413 16.91 1.125 16.029 2.039 27.03 14.376 27.086 30.614.124 36.325.108 72.65.007 108.976-.045 16.136-9.868 27.921-25.658 30.893-4.217.794-8.595 1.016-12.9 1.02-55.654.066-111.308.036-166.962.048-17.146.003-18.699 1.592-18.7 18.982-.006 56.987.03 113.974-.024 170.961-.017 17.543-8.537 29.381-24.189 33.532-3.478.922-7.233 1.097-10.861 1.106-33.659.081-67.318.113-100.977.03-22.851-.057-35.801-13.075-35.957-35.983-.083-12.33-.018-24.66-.02-37.99z"/><path fill="#FEFEFE" d="M3181.996 580V228.337h10.64c89.989 0 179.981-.512 269.965.136 104.078.749 174.414 70.702 189.775 159.873 6.451 37.451 5.354 74.553-7.193 110.46-23.43 67.049-71.38 106.77-140.42 120.961-15.53 3.192-31.715 4.162-47.621 4.366-44.321.568-88.653.198-132.981.198h-11.534v225.053h-130.63V580m130.331-153v91h11.279c37.632 0 75.266.139 112.897-.093 9.95-.062 20-.571 29.82-2.08 25.375-3.901 47.056-14.467 60.787-37.359 15.608-26.021 18.583-53.893 9.558-82.605-8.811-28.034-27.529-46.913-56.444-53.884-12.834-3.094-26.21-5.177-39.38-5.407-39.617-.693-79.256-.25-118.887-.25h-9.63V427z"/><path fill="#939498" d="M2995.998 1049.995h35.233c.195 3.696.451 6.282.452 8.868.02 118.628.28 237.257-.124 355.883-.14 40.894-11.616 78.2-40.173 108.908-22.999 24.73-51.623 39.557-84.169 47.037-47.694 10.962-94.696 8.951-139.884-10.8-40.88-17.867-69.44-47.563-81.791-91.274-3.716-13.15-5.8-26.608-5.078-41.085h87.206c.534 2.718 1.256 5.273 1.513 7.874 2.774 28.063 18.447 46.406 44.59 54.391 33.13 10.119 65.312 6.994 94.27-13.725 18.568-13.286 27.937-31.758 28.21-54.614.199-16.659.05-33.322.025-49.983-.003-1.836-.209-3.672-.41-6.985-21.285 33.634-53.004 43.792-88.596 45.708-19.002 1.022-37.98-.027-56.52-4.954-42.389-11.264-71.871-37.76-90.38-77.024-9.166-19.445-14.295-40.086-17.303-61.28-4.965-34.99-4.371-69.811 5.201-103.99 11.318-40.411 32.696-74.294 68.001-98.034 35.365-23.78 74.227-30.157 115.508-20.185 23.09 5.578 41.842 18.496 56.62 37.12 2.007 2.528 4.021 5.051 7.7 9.673v-41.529h59.899m-215.415 207.823c3.26 18.64 9.747 35.845 21.774 50.775 27.007 33.527 75.645 37.011 107.078 7.6 13.807-12.92 22.343-28.752 26.6-47.054 5.292-22.75 4.054-45.576.85-68.42-1.999-14.255-5.713-27.992-12.528-40.788-10.367-19.467-26.298-31.556-48.015-35.347-13.526-2.362-27.15-2.101-40.607 1.282-12.255 3.08-22.764 9.013-31.5 18.22-10.643 11.215-16.494 24.83-20.208 39.521-6.036 23.881-5.654 48.116-3.444 74.211z"/><path fill="#FEFEFE" d="M697.659 618V337.779c-31.207-.225-62.013-.075-92.815-.102-30.974-.027-61.948-.006-92.806-.006-2.235-7.724-3.043-80.252-1.309-107.76 6.927-1.983 486.992-2.76 504.674-.745v108.308H828.149v511.925H697.66v-231.4z"/><path fill="#FCFCFC" d="M3153.031 811.999v37.42h-437.97V228.902h129.784v506.87h308.186v76.227z"/><path fill="#929397" d="m2159.2 1352-.001 55.192h-91.13l-.677-38.345-1.77-.44c-2.017 2.45-4.085 4.857-6.04 7.354-19.156 24.465-44.498 37.383-75.181 40.45-36.808 3.68-70.936-3.535-101.38-25.194-27.917-19.86-45.524-47.382-56.75-79.136-11.703-33.11-14.43-67.425-12.797-102.37 1.432-30.654 7.03-60.25 20.386-87.925 19.582-40.58 49.734-69.049 95.175-77.966 52.748-10.35 97.603 3.154 132.064 45.949a29.32 29.32 0 0 0 2.007 2.211c.221.224.586.305 2.36 1.174.392-14.61.147-28.583.189-42.542.044-14.664.01-29.328.01-43.993v-85.705c7.44-2.3 76.68-3.01 91.847-1.126.236.235.495.453.7.712.198.251.488.546.489.822.18 143.293.34 286.585.498 430.878m-92.951-154.988c-2.782-10.242-4.712-20.814-8.515-30.662-9.328-24.156-26.769-39.38-52.708-43.515-7.481-1.193-15.288-1.241-22.873-.732-29.675 1.992-50.532 16.729-62.02 44.312-1.658 3.979-2.99 8.113-4.202 12.255-7.115 24.348-7.703 49.293-5.233 74.211 2.129 21.482 9.213 41.46 22.828 58.74 29.234 37.103 81.52 37.656 111.453 1.151 8.995-10.97 15.43-23.226 19.26-36.872 7.167-25.53 5.942-51.3 2.01-78.888z"/><path fill="#939498" d="M1013.724 1412.497c-30.998-6.878-53.444-23.438-66.557-51.842-6.123-13.262-8.306-27.413-8.25-41.82.064-17.007 1.415-33.925 7.099-50.197 6.838-19.574 18.708-35.146 36.434-46.08 19.9-12.273 41.967-18.452 64.708-22.465 23.927-4.222 47.972-7.787 71.87-12.163 8.454-1.548 16.805-4.154 24.887-7.136 12.646-4.667 18.577-14.756 19.473-27.743.854-12.37-4.402-22.161-14.912-28.548-5.34-3.245-11.27-5.976-17.297-7.543-15.65-4.069-31.542-4.342-47.541-1.518-20.38 3.598-33.311 15.636-40.265 34.643-1.814 4.956-3.148 10.087-4.85 15.615h-87.328c.055-54.867 25.096-93.946 71.372-112.105 22.664-8.894 46.387-11.768 70.39-12.99 25.044-1.275 49.928.485 74.512 5.599 49.182 10.229 77.874 41.05 88.223 89.352 2.84 13.254 4.353 27.043 4.43 40.598.417 74.322.202 148.647.185 222.971 0 2.316-.206 4.632-.312 6.868-7.34 2.168-63.923 2.905-87.162 1.15-5.218-8.514-3.916-19.042-7.295-29.075-44.233 39.402-95.831 44.987-151.814 34.43m138.502-101.4c7.39-11.035 11.97-23.057 12.16-36.443.186-13.065.04-26.135.04-39.166-7.07 2.931-13.894 6.533-21.155 8.603-13.418 3.826-27.042 6.979-40.672 9.997-15.298 3.389-30.58 6.68-44.592 14.094-12.913 6.833-21.224 17.252-23.35 31.764-3.87 26.406 6.767 45.848 35.152 48.53 34.007 3.214 61.352-8.5 82.417-37.38z"/><path fill="#FCFCFC" d="M481.68 606c-.035 80.997-.07 160.994-.133 240.99 0 .602-.403 1.203-.836 2.414H351.674V228.577H481.68V606z"/><path fill="#939498" d="M2615.55 1098.52c19.602 27.152 29.1 57.446 34.368 89.323 3.533 21.38 5.114 42.898 4.195 65.613h-244.536c-.648 16.606 3.23 31.166 9.97 44.93 22.925 46.818 70.534 50.67 102.435 36.286 14.299-6.447 24.65-16.819 29.958-32.151h97.403c-5.691 21.822-15.24 41.044-29.024 58.052-26.316 32.471-61.102 49.988-102.014 54.955-33.705 4.092-67.13 1.529-99.681-9.12-43.4-14.196-72.796-43-89.106-85.358-13.145-34.137-16.388-69.782-15.657-106.018.592-29.292 5.501-57.634 18.066-84.314 22.48-47.736 59.975-76.398 111.55-86.38 30.4-5.885 60.893-5.737 91.2 1.476 33.01 7.856 60.031 24.872 80.873 52.707m-146.577 18.982c-33.218 7.87-59.09 42.472-56.2 75.507h143.76c-.15-24.023-6.298-44.703-25.195-59.92-17.794-14.328-38.03-19.971-62.365-15.587zM3168.588 1405.55c-64.512-25.322-98.466-73.601-108.704-139.91-5.72-37.042-3.967-73.867 8.404-109.447 21.528-61.92 65.056-99.263 129.295-111.847 33.088-6.482 66.307-5.81 99.035 2.85 54.395 14.394 92.858 47.846 112.24 100.442 20.67 56.09 20.61 113.257-2.91 168.645-23.403 55.116-66.584 87.073-125.21 97.498-37.615 6.69-74.97 4.433-112.15-8.232m29.11-275.184c-17.69 9.525-28.57 24.617-34.8 43.271-9.498 28.441-9.196 57.625-5.665 86.92 1.726 14.32 5.928 27.994 13.173 40.572 9.8 17.013 24.29 28.049 43.276 32.932 14.657 3.77 29.466 4.551 44.54 2.19 24.634-3.857 43.473-15.708 55.217-38.104 6.105-11.641 9.677-24.055 11.433-37.003 3.881-28.618 3.896-57.123-4.706-84.976-7.972-25.811-23.821-44.808-50.832-51.6-23.751-5.972-47.51-5.554-71.636 5.798zM1390.327 1296v111.15h-94.105v-356.556h89.507v48.222c2.658-2.75 4.055-3.832 4.995-5.223 21.377-31.637 51.369-48.167 89.125-52.024 20.806-2.125 41.2-1.445 61.354 4.269 43.303 12.276 71.468 45 76.957 89.837 1.13 9.229 1.759 18.58 1.775 27.876.138 77.324.079 154.649.079 231.973v11.49h-95.64c-.12-3.65-.357-7.484-.358-11.318-.022-69.992.102-139.984-.154-209.975-.034-9.58-1.396-19.249-3.072-28.712-3.415-19.276-15.36-30.5-34.494-33.929-15.204-2.725-30.467-3.045-45.637.391-23.203 5.257-38.573 19.439-44.876 42.17a145.981 145.981 0 0 0-5.217 35.375c-.704 31.314-.239 62.654-.239 94.984zM749.994 1182.099c27.778 7.442 54.83 14.493 81.733 22.07 17.034 4.799 33.42 11.215 47.964 21.756 20.23 14.662 30.48 34.568 32.615 59.204 1.365 15.747.619 31.29-3.547 46.516-9.29 33.954-31.778 56.186-63.292 70.136-16.904 7.484-34.781 11.642-53.042 13.478-37.007 3.72-73.847 2.888-109.974-7.225-34.96-9.786-63.726-28.36-82.987-59.894-10.118-16.566-14.641-34.781-15.346-53.977 7.226-2.273 81.153-2.966 96.62-1.04.334.537.918 1.055.964 1.617 1.977 23.957 15.995 38.117 37.78 45.231 25.173 8.22 50.472 7.54 75.518-1.021 3.13-1.07 6.194-2.495 9.058-4.153 10.6-6.136 14.758-15.526 14.334-27.624-.403-11.51-5.31-20.377-15.709-24.598-13.815-5.609-28.103-10.162-42.408-14.432-28.048-8.374-56.406-15.737-84.323-24.512-15.57-4.895-30.082-12.575-43.166-22.64-17.904-13.772-29.505-31.496-33.639-53.793-3.714-20.035-2.405-39.746 4.855-58.908 8.166-21.555 23.025-37.047 43.128-47.946 19.076-10.342 39.697-15.458 60.986-17.832 33.267-3.71 66.492-3.332 99.409 3.551 21.476 4.491 41.56 12.235 58.252 27.005 18.985 16.798 29.36 38.412 34.11 62.942 1.32 6.815 1.914 13.77 2.825 20.546-7.712 2.113-74.203 2.774-90.855 1.048-1.006-3.572-2.067-7.368-3.146-11.16-4.566-16.042-14.613-26.733-30.93-30.858-23.39-5.913-46.875-6.223-69.948 1.22-14.73 4.753-20.779 15.88-17.81 30.269 1.737 8.421 6.766 14.733 14.371 18.126 11.522 5.139 23.43 9.417 35.226 13.928 3.099 1.185 6.384 1.881 10.374 2.97z"/><path fill="#929397" d="M2192.8 1112v-61.196h94.529v355.88c-6.585 2.013-77.263 2.749-94.53.757V1112z"/><path fill="#919296" d="M2232 919.987h55.341v87.469c-31.179 0-61.971 0-92.766.007-2.185-6.682-2.895-70.963-.756-87.476H2232z"/><path fill="#020202" d="M3312.328 426V336.32h9.63c39.631 0 79.27-.442 118.888.25 13.17.231 26.545 2.314 39.379 5.408 28.915 6.97 47.633 25.85 56.444 53.884 9.025 28.712 6.05 56.584-9.558 82.605-13.73 22.892-35.412 33.458-60.787 37.358-9.82 1.51-19.87 2.02-29.82 2.08-37.631.233-75.265.094-112.897.094h-11.279v-92z"/><path fill="#010101" d="M2780.457 1256.922c-2.084-25.2-2.466-49.434 3.57-73.315 3.714-14.691 9.565-28.306 20.208-39.521 8.736-9.207 19.245-15.14 31.5-18.22 13.457-3.383 27.081-3.644 40.607-1.282 21.717 3.791 37.648 15.88 48.015 35.347 6.815 12.796 10.53 26.533 12.528 40.788 3.204 22.844 4.442 45.67-.85 68.42-4.257 18.302-12.793 34.135-26.6 47.054-31.433 29.411-80.07 25.927-107.078-7.6-12.027-14.93-18.515-32.135-21.9-51.67zM2066.344 1197.885c3.836 26.716 5.06 52.484-2.106 78.015-3.83 13.646-10.265 25.902-19.26 36.872-29.933 36.505-82.219 35.952-111.453-1.15-13.615-17.28-20.7-37.26-22.828-58.74-2.47-24.919-1.882-49.864 5.233-74.212 1.211-4.142 2.544-8.276 4.201-12.255 11.489-27.583 32.346-42.32 62.021-44.312 7.585-.51 15.392-.461 22.873.732 25.94 4.135 43.38 19.36 52.708 43.515 3.803 9.848 5.733 20.42 8.611 31.535z"/><path fill="#020202" d="M1151.858 1311.719c-20.697 28.259-48.042 39.972-82.049 36.758-28.385-2.682-39.022-22.124-35.152-48.53 2.126-14.512 10.437-24.93 23.35-31.764 14.012-7.414 29.294-10.705 44.592-14.094 13.63-3.018 27.254-6.171 40.672-9.997 7.26-2.07 14.085-5.672 21.156-8.603 0 13.03.145 26.1-.04 39.166-.192 13.386-4.77 25.408-12.53 37.064z"/><path fill="#030303" d="M2469.795 1117.26c23.513-4.141 43.75 1.502 61.543 15.83 18.897 15.217 25.046 35.897 25.195 59.92h-143.76c-2.89-33.035 22.982-67.638 57.022-75.75z"/><path fill="#010101" d="M3198.384 1130.06c23.44-11.047 47.199-11.465 70.95-5.493 27.011 6.792 42.86 25.789 50.832 51.6 8.602 27.853 8.587 56.358 4.706 84.976-1.756 12.948-5.328 25.362-11.433 37.003-11.744 22.396-30.583 34.247-55.217 38.105-15.074 2.36-29.883 1.578-44.54-2.191-18.987-4.883-33.476-15.919-43.276-32.932-7.245-12.578-11.447-26.252-13.173-40.572-3.53-29.295-3.833-58.479 5.665-86.92 6.23-18.654 17.11-33.746 35.486-43.575z"/></svg>