<svg xmlns="http://www.w3.org/2000/svg" xml:space="preserve" viewBox="0 0 1200 175">
    <path fill="none" d="M899 176H1V1h1200v175H899M346.021 16.938c-.007 46.833-.023 93.667.021 140.5.002 1.465.628 2.93 1.89 4.541h29.784V15.017c-10.242 0-20.204-.013-30.165.042-.463.003-.922.622-1.53 1.88m450.49 118.06h-12.157V99h9.82l56.988.001c2.345 0 4.873.394 4.85-3.254-.051-7.782-.016-15.565-.016-23.81H784.3V41.813h77.338V15.385H753.234V161.74h111.472V135h-68.194M719.676 15c-2.647-.386-3.791.404-3.746 3.423.174 11.662.07 23.328.07 34.993v16.258h-56.002v-5.27c0-14.83.067-29.662-.096-44.491-.018-1.63-1.313-4.633-2.091-4.658-9.9-.32-19.812-.21-29.573-.21V162c9.023 0 17.823-.24 26.6.1 4.437.172 5.27-1.58 5.233-5.535-.166-18.161-.078-36.326-.064-54.49.002-1.604.133-3.208.201-4.744h56.042v64.451h30.507V15h-27.081m360.898 78.926c2.14-3.8 4.49-7.5 6.377-11.421 3.696-7.683 3.544-16.016 2.956-24.184-.984-13.667-6.696-25.013-17.925-33.346-9.218-6.84-19.915-8.705-30.896-8.887-18.994-.317-37.997-.093-56.997-.079-1.606.001-3.212.133-4.76.202v145.425h30.814v-51.12c13.013-.513 25.723-1.038 38.435-1.508 12.538-.463 23.01-5.337 31.996-15.082M615.723 73.328c-1.276-4.56-3.92-6.624-9.002-6.438-10.146.371-20.323-.123-30.472.21-4.87.161-6.41-1.616-6.314-6.271.21-10.156.023-20.319.082-30.478.025-4.307-1.912-6.403-6.272-6.365-6.828.06-13.657.009-20.486.016-6.435.007-8.225 1.748-8.25 8.19-.036 9.826-.183 19.657.072 29.477.109 4.187-1.304 5.502-5.442 5.41-10.655-.237-21.318-.123-31.977-.06-5.77.034-7.645 2.01-7.659 7.77-.014 5.996-.027 11.992.005 17.987.027 5.348 1.816 7.196 7.065 7.213 10.826.035 21.652.072 32.478-.019 3.878-.033 5.64 1.266 5.529 5.499-.255 9.653-.096 19.318-.074 28.978.015 6.656 2.56 9.374 9.17 9.523 5.827.13 11.66.108 17.487.006 6.144-.107 8.317-2.368 8.33-8.46.023-9.826.138-19.656-.05-29.479-.088-4.577 1.812-6.172 6.255-6.094 10.323.18 20.651.068 30.978.053 6.919-.01 8.74-1.801 8.808-8.835.055-5.661-.027-11.324-.261-17.833m-157.514 88.568c.264-1.735.755-3.47.757-5.205.045-36.315.034-72.631.034-108.947v-5.809h43.702V15.314H384.344v26.958h43.97v119.715c9.95 0 19.443 0 29.895-.09M917.504 135h-15.738V16.386h-30.531v145.352h102.47V135h-56.201m189.008 10h26.136v11.276h-16.436v5.493h53.534v-5.877h-16.428V145c11.62 0 22.93-.208 34.225.102 4.538.125 5.591-1.457 5.546-5.73-.204-19.15-.268-38.306.032-57.453.078-5.04-1.66-6.042-6.287-6.013-29.642.184-59.286.187-88.928-.003-4.61-.03-5.995 1.56-5.964 5.93.134 19.15.101 38.302.022 57.454-.016 3.94.93 6.338 5.567 5.77 2.626-.32 5.322-.057 8.981-.057M137 35.925v33.762h14c0-10.945-.048-21.579.044-32.211.017-1.91.043-4.245 1.079-5.618 1.496-1.984 3.93-4.519 5.941-4.498 2.004.02 4.437 2.591 5.82 4.63 1.064 1.57 1.054 4.045 1.072 6.122.095 10.576.044 21.153.044 31.507h14c0-12.695.267-25.019-.082-37.324-.299-10.552-7.533-18.798-18.54-18.431-6.354.21-12.002 1.131-16.47 6.704-4.652-6.386-11.07-6.827-17.84-6.61-7.865.252-15.396 5.346-15.843 13.174-.806 14.122-.228 28.323-.228 42.585H123c0-11.071-.17-21.868.118-32.651.073-2.737.87-6.098 2.609-8.016 4.106-4.53 9.025-1.781 11.273 6.875m65.612-20.065c-12.917 5.867-18.939 17.478-16.641 31.735 1.833 11.379 7.995 19.358 19.09 22.315 10.98 2.925 21.679 1.816 30.723-6.191 7.162-6.342 8.61-14.536 8.3-23.628-.37-10.864-7.04-20.337-17.255-24.208-7.898-2.992-15.708-2.174-24.217-.023M8 43.5v26.143h15.092V53.458c3.3-1.256 4.852-.103 6.113 2.858 1.583 3.716 3.632 7.285 5.899 10.634.942 1.393 2.904 2.775 4.51 2.912 4.565.39 9.186.137 14.412.137L43.536 52.85c3.263-5.63 6.635-9.548 7.906-14.057 2.347-8.324-.617-21.172-12.64-22.693C28.737 14.83 18.486 15.041 8 14.582V43.5M300.676 70h38.084V56.934h-26.462v-9.117h21.34V36.87H312.24v-8.946h26.452V15.337h-41.691c0 17.484-.044 34.632.116 51.778.009.97 1.69 1.923 3.559 2.885M97.36 70l4.332-.222V56.803H75.369V47.86H96.75V36.912H75.31v-9.118h26.315V15.226h-41.37V70H97.36m165.142-55h-16.159v13.274h14.97v41.491h13.732v-41.85h14.651V15h-27.194z"/>

    <path fill="#58A6FF" d="M797.01 135h67.696v26.74H753.234V15.384h108.404v26.428H784.3v30.124h71.696c0 8.245-.035 16.028.015 23.81.024 3.648-2.504 3.254-4.849 3.254H784.354V135h12.656zM720.16 15h26.597v146.782H716.25V97.331h-56.042c-.068 1.536-.2 3.14-.2 4.745-.015 18.163-.103 36.328.063 54.49.036 3.955-.796 5.706-5.233 5.534-8.777-.34-17.577-.1-26.6-.1V15.044c9.76 0 19.674-.11 29.573.21.778.025 2.073 3.028 2.091 4.658.163 14.829.096 29.66.096 44.49v5.271H716V53.415c0-11.665.104-23.331-.07-34.993-.045-3.02 1.099-3.81 4.23-3.422zM1080.311 94.177c-8.722 9.494-19.195 14.368-31.733 14.831-12.712.47-25.422.995-38.435 1.507v51.121h-30.814V16.211c1.548-.069 3.154-.2 4.76-.202 19-.014 38.003-.238 56.997.079 10.98.182 21.678 2.047 30.896 8.887 11.229 8.333 16.94 19.679 17.925 33.346.588 8.168.74 16.501-2.956 24.184-1.888 3.921-4.237 7.621-6.64 11.672m-19.188-22.764c5.234-10.498-.013-25.836-13.835-27.985-12.116-1.884-24.605-1.373-36.993-1.923V84c10.42 0 20.548.072 30.674-.021 8.881-.082 16.203-2.99 20.154-12.566z"/>
    <path fill="#BF1E2D" d="M615.829 73.751c.128 6.086.21 11.749.155 17.41-.069 7.034-1.89 8.825-8.808 8.835-10.327.015-20.655.128-30.978-.053-4.443-.078-6.343 1.517-6.255 6.094.188 9.823.073 19.653.05 29.48-.013 6.09-2.186 8.352-8.33 8.46-5.827.101-11.66.124-17.487-.007-6.61-.149-9.155-2.867-9.17-9.523-.022-9.66-.18-19.325.074-28.978.112-4.233-1.65-5.532-5.53-5.499-10.825.091-21.651.054-32.477.02-5.249-.018-7.038-1.866-7.065-7.214-.032-5.995-.019-11.991-.005-17.987.014-5.76 1.889-7.736 7.66-7.77 10.658-.063 21.321-.177 31.976.06 4.138.092 5.551-1.223 5.442-5.41-.255-9.82-.108-19.651-.071-29.478.024-6.44 1.814-8.182 8.249-8.19 6.829-.006 13.658.045 20.486-.015 4.36-.038 6.297 2.058 6.272 6.365-.059 10.16.128 20.322-.082 30.478-.096 4.655 1.443 6.432 6.314 6.272 10.149-.334 20.326.16 30.472-.211 5.081-.186 7.726 1.879 9.108 6.861z"/>
    <path fill="#58A6FF" d="M457.73 161.942c-9.973.045-19.466.045-29.415.045V42.272h-43.97V15.314h118.357v26.621H459v5.81c0 36.315.01 72.63-.034 108.946-.002 1.735-.493 3.47-1.236 5.25zM918.003 135h55.702v26.738h-102.47V16.386h30.53V135h16.238zM346.168 16.013c.46-.332.92-.951 1.383-.954 9.961-.055 19.923-.042 30.165-.042v146.962c-9.93 0-19.857 0-30.249-.53-.465-46.559-.454-92.586-.502-138.614-.003-2.274-.52-4.548-.797-6.822z"/>
    <path fill="#59AAFF" d="M1106.015 145c-3.162 0-5.858-.263-8.484.058-4.636.567-5.583-1.83-5.567-5.771.08-19.152.112-38.304-.022-57.455-.03-4.368 1.354-5.959 5.964-5.93 29.642.191 59.286.188 88.928.004 4.626-.029 6.365.972 6.287 6.013-.3 19.147-.236 38.303-.032 57.452.045 4.274-1.008 5.856-5.546 5.73-11.296-.31-22.605-.101-34.225-.101v10.892h16.428v5.877h-53.534v-5.493h16.436V145h-26.633m63.484-63H1099.3v49.709h87.398V82h-17.2zM136.998 35.476c-2.246-8.207-7.165-10.955-11.271-6.426-1.74 1.918-2.536 5.28-2.609 8.016-.288 10.783-.118 21.58-.118 32.651h-13.003c0-14.262-.578-28.463.228-42.585.447-7.828 7.978-12.922 15.843-13.174 6.77-.217 13.188.224 17.84 6.61 4.468-5.573 10.116-6.493 16.47-6.704 11.007-.367 18.241 7.879 18.54 18.43.35 12.306.082 24.63.082 37.325h-14c0-10.354.051-20.931-.044-31.507-.018-2.077-.008-4.552-1.073-6.122-1.382-2.039-3.815-4.61-5.819-4.63-2.01-.02-4.445 2.514-5.941 4.498-1.036 1.373-1.062 3.708-1.079 5.618-.092 10.632-.044 21.266-.044 32.21h-14c0-11.243 0-22.502-.002-34.21zM202.908 15.58c8.213-1.871 16.023-2.69 23.921.303 10.215 3.87 16.885 13.344 17.255 24.208.31 9.092-1.138 17.286-8.3 23.628-9.044 8.007-19.743 9.116-30.723 6.19-11.095-2.956-17.257-10.935-19.09-22.314-2.298-14.257 3.724-25.868 16.937-32.016m23.02 16.046c-1.046-.761-2.05-1.591-3.146-2.273-6.598-4.102-16.068-2.506-19.69 3.318-5.27 8.476-3.025 17.843 3.32 22.493 7.293 5.345 14.887 2.435 19.426-1.922 5.646-5.42 5.401-14.13.09-21.616zM8 43V14.582c10.487.46 20.738.247 30.801 1.52 12.024 1.52 14.988 14.368 12.641 22.692-1.27 4.51-4.643 8.426-7.905 14.057L54.026 70c-5.226 0-9.847.253-14.413-.137-1.605-.137-3.567-1.52-4.51-2.912-2.266-3.35-4.315-6.918-5.898-10.634-1.261-2.96-2.813-4.114-6.113-2.858v16.185H8V43m15.002-5.702c.777.9 1.524 2.524 2.337 2.558 2.208.09 4.44-.724 6.67-.758 4.282-.065 5.319-2.525 4.977-6.158-.366-3.887-2.849-5.074-6.392-4.955-2.417.08-4.84.015-7.593.015l.001 9.298zM300.193 70c-1.386-.962-3.067-1.916-3.076-2.885-.16-17.146-.116-34.294-.116-51.778h41.691v12.586H312.24v8.946h21.398v10.948h-21.34v9.117h26.462V70h-38.567zM96.872 70H60.254V15.226h41.371v12.568H75.31v9.118h21.44V47.86H75.369v8.943h26.323v12.975c-1.443.074-2.887.148-4.82.222zM263.002 15h26.694v12.915h-14.651v41.85h-13.732V28.274h-14.97V15h16.659z"/>
    <path fill="#4E9DFF" d="M346.095 16.476c.35 1.811.867 4.085.87 6.36.048 46.027.037 92.054.04 138.54-.335-1.008-.961-2.473-.963-3.938-.044-46.833-.028-93.667.053-140.962z"/>
    <path d="M1061.046 71.803c-3.874 9.187-11.196 12.094-20.077 12.176-10.126.093-20.254.021-30.674.021V41.505c12.388.55 24.877.04 36.993 1.923 13.822 2.149 19.069 17.487 13.758 28.375zM1169.998 82h16.701v49.709h-87.398V82h70.697zM225.994 32.006c5.245 7.106 5.49 15.815-.156 21.235-4.539 4.357-12.133 7.267-19.426 1.922-6.345-4.65-8.59-14.017-3.32-22.493 3.622-5.824 13.092-7.42 19.69-3.318 1.096.682 2.1 1.512 3.212 2.654zM23.002 36.825 23 28c2.754 0 5.176.066 7.593-.015 3.543-.119 6.026 1.068 6.392 4.955.342 3.633-.695 6.093-4.978 6.158-2.229.034-4.461.849-6.67.758-.812-.034-1.559-1.659-2.336-3.031z"/>
</svg>
